<svg fill="currentColor" xmlns="http://www.w3.org/2000/svg"><path d="M20 5c8.285 0 15 6.716 15 15 0 8.285-6.715 15-15 15S5 28.285 5 20c0-8.284 6.715-15 15-15Z"/><path d="M20 10c-5.518 0-10 4.482-10 10s4.482 10 10 10 10-4.482 10-10-4.482-10-10-10Zm0 .87A9.124 9.124 0 0 1 29.13 20 9.124 9.124 0 0 1 20 29.13a9.148 9.148 0 0 1-2.654-.392c.374-.625.857-1.519 1.049-2.257l.583-2.222c.304.581 1.194 1.073 2.141 1.073 2.82 0 4.852-2.593 4.852-5.814 0-3.09-2.52-5.4-5.764-5.4-4.035 0-6.176 2.708-6.176 5.657 0 1.371.73 3.078 1.897 3.622.177.082.272.046.313-.125.03-.13.189-.765.26-1.06a.28.28 0 0 0-.065-.268c-.387-.469-.696-1.33-.696-2.133 0-2.062 1.56-4.058 4.22-4.058 2.296 0 3.905 1.566 3.905 3.804 0 2.528-1.277 4.28-2.938 4.28-.918 0-1.605-.759-1.385-1.69.264-1.11.775-2.31.775-3.112 0-.717-.385-1.316-1.183-1.316-.938 0-1.692.97-1.692 2.27 0 .827.28 1.387.28 1.387s-.926 3.918-1.096 4.647c-.17.729-.124 1.71-.054 2.44A9.124 9.124 0 0 1 10.87 20 9.124 9.124 0 0 1 20 10.87Z" fill="#041827"/></svg>
